<svg xmlns:dc="http://purl.org/dc/elements/1.1/" xmlns:cc="http://creativecommons.org/ns#" xmlns:rdf="http://www.w3.org/1999/02/22-rdf-syntax-ns#" xmlns:svg="http://www.w3.org/2000/svg" xmlns="http://www.w3.org/2000/svg" xmlns:sodipodi="http://sodipodi.sourceforge.net/DTD/sodipodi-0.dtd" xmlns:inkscape="http://www.inkscape.org/namespaces/inkscape" id="svg2" version="1.1" width="512" height="512" viewBox="0 0 511.99999 511.99999">
  <defs id="defs6">
    <filter style="color-interpolation-filters:sRGB" id="filter4187" x="-0.10767788" width="1.2153558" y="-0.041773677" height="1.0835474">
      <feGaussianBlur stdDeviation="8.1924142" id="feGaussianBlur4189"></feGaussianBlur>
    </filter>
  </defs>
  <rect style="opacity: 1; fill: rgb(230, 230, 230); fill-rule: evenodd; stroke: none; stroke-width: 1.6016; stroke-linecap: butt; stroke-linejoin: round; stroke-miterlimit: 4; stroke-dasharray: none; stroke-dashoffset: 0; stroke-opacity: 1; fill-opacity: 0.47;" id="rect4239" width="398.398" height="448.398" x="58.01" y="32.885" ry="19.537" rx="19.537"></rect>
  <path style="opacity:0.2;fill:#000000;fill-opacity:1;stroke:none;stroke-width:47.11000061;stroke-linecap:butt;stroke-linejoin:miter;stroke-miterlimit:4;stroke-dasharray:94.21999585, 94.21999585;stroke-dashoffset:0;stroke-opacity:1;filter:url(#filter4187)" d="m 406.96168,9.8140836 c 7.68971,0 17.46522,7.5066454 17.46522,20.6860944 l 0.34919,456.223542 c 0,10.06653 -11.1385,19.09686 -24.10153,19.09686 l -145.47536,-23.7367 0,-450.000004 z" id="rect4178-9-7-5" transform="matrix(0.97685263,0,0,0.94533771,21.624009,14.092875)"></path>
  <path style="opacity: 1; fill: rgb(255, 255, 255); stroke: none; stroke-width: 47.11; stroke-linecap: butt; stroke-linejoin: miter; stroke-miterlimit: 4; stroke-dasharray: 94.22, 94.22; stroke-dashoffset: 0; stroke-opacity: 1;" d="m 407.98305,10.480214 c 7.68971,0 17.46522,7.506645 17.46522,20.686094 l 0.34919,454.891292 c 0,10.06653 -11.1385,19.09686 -24.10153,19.09686 l -146.49673,-23.07058 0,-450.000002 z" id="rect4178-9-7"></path>
  <path style="opacity: 1; fill: rgb(186, 23, 78); fill-rule: evenodd; stroke: none; stroke-width: 1.14898; stroke-linecap: butt; stroke-linejoin: round; stroke-miterlimit: 4; stroke-dasharray: none; stroke-dashoffset: 0; stroke-opacity: 1; fill-opacity: 0.46;" d="m 205.41992,27.132812 c -2.87334,0 -5.1875,2.31416 -5.1875,5.1875 l 0,183.611328 c 0,0.0954 0.009,0.18913 0.0137,0.2832 l 20.38086,-20.41796 20.46094,20.42187 c 0.005,-0.0954 0.0137,-0.19041 0.0137,-0.28711 l 0,-183.611328 c 0,-2.87334 -2.3122,-5.1875 -5.18554,-5.1875 l -30.4961,0 z" id="rect5499"></path>
</svg>